<svg width="26" height="26" viewBox="0 0 26 26" fill="none" xmlns="http://www.w3.org/2000/svg">
<path d="M6.85089 19.3158L6.85089 14.2632" stroke="#2A353D" stroke-width="1.5" stroke-linecap="round"/>
<path d="M13.1667 19.3159L13.1667 6.68433" stroke="#2A353D" stroke-width="1.5" stroke-linecap="round"/>
<path d="M19.4825 19.3158L19.4825 11.7368" stroke="#2A353D" stroke-width="1.5" stroke-linecap="round"/>
<path d="M1.16669 13C1.16669 7.34315 1.16669 4.51472 2.92405 2.75736C4.68141 1 7.50983 1 13.1667 1C18.8235 1 21.652 1 23.4093 2.75736C25.1667 4.51472 25.1667 7.34315 25.1667 13C25.1667 18.6569 25.1667 21.4853 23.4093 23.2426C21.652 25 18.8235 25 13.1667 25C7.50983 25 4.68141 25 2.92405 23.2426C1.16669 21.4853 1.16669 18.6569 1.16669 13Z" stroke="#2A353D" stroke-width="1.5" stroke-linejoin="round"/>
</svg>
