<svg width="25" height="24" viewBox="0 0 25 24" fill="none" xmlns="http://www.w3.org/2000/svg">
<path d="M17.2778 2H18.8334C21.0425 2 22.8334 3.79086 22.8334 6V7.55556M8.38893 2H6.83337C4.62423 2 2.83337 3.79086 2.83337 6V7.55556M22.8334 16.4444V18C22.8334 20.2091 21.0425 22 18.8334 22H17.2778M8.38893 22H6.83337C4.62423 22 2.83337 20.2091 2.83337 18V16.4444M17.8334 12C17.8334 14.7614 15.5948 17 12.8334 17C10.072 17 7.83337 14.7614 7.83337 12C7.83337 9.23858 10.072 7 12.8334 7C15.5948 7 17.8334 9.23858 17.8334 12Z" stroke="#28303F" stroke-width="1.5" stroke-linecap="round"/>
</svg>
