<svg width="25" height="24" viewBox="0 0 25 24" fill="none" xmlns="http://www.w3.org/2000/svg">
<path d="M8.5 6.75C8.5 4.54421 10.2942 2.75 12.5 2.75C14.7053 2.75 16.4992 4.54343 16.5 6.74855C16.4908 8.91292 14.8051 10.6579 12.6563 10.74H12.6563H12.6562H12.6562H12.6562H12.6561H12.6561H12.656H12.656H12.656H12.6559H12.6559H12.6559H12.6558H12.6558H12.6558H12.6557H12.6557H12.6556H12.6556H12.6556H12.6555H12.6555H12.6555H12.6554H12.6554H12.6553H12.6553H12.6553H12.6552H12.6552H12.6551H12.6551H12.6551H12.655H12.655H12.6549H12.6549H12.6549H12.6548H12.6548H12.6547H12.6547H12.6547H12.6546H12.6546H12.6545H12.6545H12.6545H12.6544H12.6544H12.6543H12.6543H12.6542H12.6542H12.6542H12.6541H12.6541H12.654H12.654H12.6539H12.6539H12.6539H12.6538H12.6538H12.6537H12.6537H12.6536H12.6536H12.6535H12.6535H12.6535H12.6534H12.6534H12.6533H12.6533H12.6532H12.6532H12.6531H12.6531H12.653H12.653H12.6529H12.6529H12.6529H12.6528H12.6528H12.6527H12.6527H12.6526H12.6526H12.6525H12.6525H12.6524H12.6524H12.6523H12.6523H12.6522H12.6522H12.6521H12.6521H12.652H12.652H12.6519H12.6519H12.6518H12.6518H12.6517H12.6517H12.6516H12.6516H12.6515H12.6514H12.6514H12.6513H12.6513H12.6512H12.6512H12.6511H12.6511H12.651H12.651H12.6509H12.6509H12.6508H12.6507H12.6507H12.6506H12.6506H12.6505H12.6505H12.6504H12.6503H12.6503H12.6502H12.6502H12.6501H12.6501H12.65H12.6499H12.6498H12.6496H12.6495H12.6494H12.6493H12.6492H12.6491H12.649H12.6488H12.6487H12.6486H12.6485H12.6484H12.6483H12.6482H12.648H12.6479H12.6478H12.6477H12.6476H12.6475H12.6474C12.5476 10.7297 12.4478 10.7308 12.3569 10.7385C10.1598 10.6383 8.5 8.89467 8.5 6.75Z" stroke="#0D1C36" stroke-width="1.5"/>
<path d="M7.83804 19.9673L7.83599 19.966C6.72756 19.227 6.20996 18.2976 6.20996 17.38C6.20996 16.4618 6.72814 15.5228 7.84553 14.7743C9.10288 13.9427 10.7902 13.505 12.5125 13.505C14.2357 13.505 15.9175 13.9431 17.1639 14.774C18.2669 15.5094 18.7813 16.4383 18.79 17.363C18.7888 18.2904 18.2704 19.2193 17.1611 19.9678C15.9099 20.8077 14.224 21.25 12.5 21.25C10.7755 21.25 9.08937 20.8075 7.83804 19.9673Z" stroke="#0D1C36" stroke-width="1.5"/>
</svg>
