<svg width="25" height="24" viewBox="0 0 25 24" fill="none" xmlns="http://www.w3.org/2000/svg">
<path fill-rule="evenodd" clip-rule="evenodd" d="M6.83331 1.25C4.20996 1.25 2.08331 3.37665 2.08331 6V7.55556C2.08331 7.96977 2.4191 8.30556 2.83331 8.30556C3.24753 8.30556 3.58331 7.96977 3.58331 7.55556V6C3.58331 4.20507 5.03839 2.75 6.83331 2.75H8.38887C8.80308 2.75 9.13887 2.41421 9.13887 2C9.13887 1.58579 8.80308 1.25 8.38887 1.25H6.83331ZM17.2778 1.25C16.8635 1.25 16.5278 1.58579 16.5278 2C16.5278 2.41421 16.8635 2.75 17.2778 2.75H18.8333C20.6282 2.75 22.0833 4.20507 22.0833 6V7.55556C22.0833 7.96977 22.4191 8.30556 22.8333 8.30556C23.2475 8.30556 23.5833 7.96977 23.5833 7.55556V6C23.5833 3.37665 21.4567 1.25 18.8333 1.25H17.2778ZM3.58331 16.4444C3.58331 16.0302 3.24753 15.6944 2.83331 15.6944C2.4191 15.6944 2.08331 16.0302 2.08331 16.4444V18C2.08331 20.6234 4.20996 22.75 6.83331 22.75H8.38887C8.80308 22.75 9.13887 22.4142 9.13887 22C9.13887 21.5858 8.80308 21.25 8.38887 21.25H6.83331C5.03839 21.25 3.58331 19.7949 3.58331 18V16.4444ZM23.5833 16.4444C23.5833 16.0302 23.2475 15.6944 22.8333 15.6944C22.4191 15.6944 22.0833 16.0302 22.0833 16.4444V18C22.0833 19.7949 20.6282 21.25 18.8333 21.25H17.2778C16.8635 21.25 16.5278 21.5858 16.5278 22C16.5278 22.4142 16.8635 22.75 17.2778 22.75H18.8333C21.4567 22.75 23.5833 20.6234 23.5833 18V16.4444ZM12.8333 17C15.5947 17 17.8333 14.7614 17.8333 12C17.8333 9.23858 15.5947 7 12.8333 7C10.0719 7 7.83331 9.23858 7.83331 12C7.83331 14.7614 10.0719 17 12.8333 17Z" fill="#75CE8E"/>
</svg>
