<svg width="25" height="24" viewBox="0 0 25 24" fill="none" xmlns="http://www.w3.org/2000/svg">
<path fill-rule="evenodd" clip-rule="evenodd" d="M21.5 10.1503V17.9668C21.5 20.1943 19.7091 22 17.5 22H7.5C5.29086 22 3.5 20.1943 3.5 17.9668V10.1503C3.5 8.93937 4.03964 7.7925 4.96986 7.02652L9.96986 2.90935C11.4423 1.69689 13.5577 1.69688 15.0301 2.90935L20.0301 7.02652C20.9604 7.7925 21.5 8.93937 21.5 10.1503ZM10.5 17.25C10.0858 17.25 9.75 17.5858 9.75 18C9.75 18.4142 10.0858 18.75 10.5 18.75H14.5C14.9142 18.75 15.25 18.4142 15.25 18C15.25 17.5858 14.9142 17.25 14.5 17.25H10.5Z" fill="#75CE8E"/>
</svg>
